<?xml version="1.0" encoding="utf-8"?>
<!-- Generator: Adobe Illustrator 15.0.2, SVG Export Plug-In . SVG Version: 6.00 Build 0)  -->
<!DOCTYPE svg PUBLIC "-//W3C//DTD SVG 1.1//EN" "http://www.w3.org/Graphics/SVG/1.1/DTD/svg11.dtd">
<svg version="1.1" id="Layer_1" xmlns="http://www.w3.org/2000/svg" xmlns:xlink="http://www.w3.org/1999/xlink" x="0px" y="0px"
	 width="512px" height="512px" viewBox="0 0 512 512" enable-background="new 0 0 512 512" xml:space="preserve">
<path d="M318.918,0C425.565,0,512,86.442,512,193.082c0,106.648-86.435,193.083-193.082,193.083
	c-36.52,0-70.679-10.138-100.403-27.152L79.111,498.424c-18.102,18.102-47.441,18.102-65.535,0
	c-18.102-18.102-18.102-47.426,0-65.527l140.015-140.015c-17.611-29.113-27.756-63.28-27.756-99.8
	C125.835,86.442,212.277,0,318.918,0z M318.918,61.786c-72.512,0-131.296,58.785-131.296,131.296
	c0,72.512,58.784,131.296,131.296,131.296c72.511,0,131.296-58.784,131.296-131.296C450.214,120.571,391.429,61.786,318.918,61.786z
	 M318.918,278.038l69.51-77.232h-46.34v-77.233h-46.34v77.233h-46.34L318.918,278.038z"/>
</svg>
